<svg width="68" height="68" viewBox="0 0 68 68" fill="none" xmlns="http://www.w3.org/2000/svg">
<g id="Behance" filter="url(#filter0_d_626_134)">
<path id="Vector" d="M4 28.8C4 15.2235 4 8.43533 8.21766 4.21766C12.4353 0 19.2235 0 32.8 0H35.2C48.7765 0 55.5646 0 59.7824 4.21766C64 8.43533 64 15.2235 64 28.8V31.2C64 44.7765 64 51.5646 59.7824 55.7824C55.5646 60 48.7765 60 35.2 60H32.8C19.2235 60 12.4353 60 8.21766 55.7824C4 51.5646 4 44.7765 4 31.2V28.8Z" fill="white"/>
<path id="Vector_2" d="M24.6714 15C26.0256 15 27.277 15.1045 28.4255 15.4179C29.5712 15.6269 30.5141 16.0627 31.3513 16.5851C32.1915 17.1104 32.8113 17.8567 33.2343 18.8149C33.6456 19.7701 33.8688 20.9373 33.8688 22.2089C33.8688 23.6895 33.5574 24.9612 32.8231 25.9164C32.1915 26.8716 31.1604 27.7253 29.8943 28.3552C31.6745 28.8805 33.0287 29.8358 33.8541 31.1074C34.6796 32.379 35.2083 33.9641 35.2083 35.773C35.2083 37.2536 34.8999 38.5253 34.3711 39.588C33.8437 40.6576 33.0522 41.5699 32.074 42.2357C31.134 42.8775 29.9854 43.3999 28.734 43.7163C27.5081 44.0453 26.2475 44.2217 24.9798 44.2417L11 44.2626V15H24.6714ZM23.8342 26.8746C24.9798 26.8746 25.9198 26.5611 26.6454 26.0238C27.368 25.4865 27.6882 24.5403 27.6882 23.3761C27.6882 22.7313 27.5854 22.1044 27.3798 21.6836C27.1572 21.257 26.8343 20.8929 26.4398 20.6239C26.0136 20.3877 25.5581 20.211 25.0855 20.0985C24.5685 19.994 24.0398 19.994 23.42 19.994H17.3745V26.8895C17.3745 26.8746 23.8371 26.8746 23.8371 26.8746H23.8342ZM24.1426 39.3909C24.7742 39.3909 25.394 39.2865 25.9228 39.182C26.4398 39.0775 26.9685 38.8656 27.3798 38.5372C27.791 38.2089 28.1142 37.8954 28.4255 37.373C28.6312 36.8477 28.8368 36.2059 28.8368 35.4596C28.8368 33.979 28.4255 32.9163 27.5854 32.1701C26.7482 31.5283 25.5996 31.2149 24.2454 31.2149H17.3745V39.376H24.1455V39.3909H24.1426ZM44.2883 39.2865C45.1284 40.1372 46.3769 40.5581 48.0425 40.5581C49.1881 40.5581 50.2339 40.2417 51.074 39.7044C51.9113 39.0626 52.4253 38.4327 52.6309 37.7939H57.7423C56.9021 40.3342 55.6507 42.1432 53.9881 43.3103C52.3254 44.37 50.3367 44.9999 47.9367 44.9999C46.4021 45.0068 44.88 44.7181 43.4511 44.1491C42.1651 43.6633 41.0176 42.8613 40.1111 41.8148C39.1442 40.8389 38.4263 39.638 38.0196 38.3163C37.5055 36.9402 37.2852 35.4596 37.2852 33.7551C37.2852 32.1701 37.4908 30.6746 38.0196 29.2984C38.5483 27.9253 39.271 26.7552 40.2139 25.6955C41.1539 24.7403 42.3025 23.8865 43.5539 23.3612C44.9493 22.7966 46.4378 22.5079 47.9397 22.5104C49.7198 22.5104 51.2797 22.8238 52.6339 23.5701C53.9852 24.3164 55.0339 25.1582 55.8711 26.4298C56.7083 27.594 57.3281 28.9701 57.754 30.4537C57.9597 31.9343 58.0625 33.4268 57.9597 35.1193H42.8313C42.8313 36.8507 43.4482 38.4327 44.2883 39.2865V39.2865ZM50.8684 28.1462C50.134 27.3999 48.9825 26.9791 47.6283 26.9791C46.6883 26.9791 45.9656 27.188 45.3341 27.5044C44.7025 27.8179 44.2883 28.2507 43.8771 28.6686C43.4931 29.0783 43.2375 29.5947 43.1427 30.1522C43.0369 30.6746 42.937 31.1074 42.937 31.5253H52.3254C52.1198 29.9552 51.5911 28.8925 50.8655 28.1462H50.8684ZM41.6827 17.0179H53.3683V19.8746H41.6827V17.0179V17.0179Z" fill="black"/>
</g>
<defs>
<filter id="filter0_d_626_134" x="0" y="0" width="68" height="68" filterUnits="userSpaceOnUse" color-interpolation-filters="sRGB">
<feFlood flood-opacity="0" result="BackgroundImageFix"/>
<feColorMatrix in="SourceAlpha" type="matrix" values="0 0 0 0 0 0 0 0 0 0 0 0 0 0 0 0 0 0 127 0" result="hardAlpha"/>
<feOffset dy="4"/>
<feGaussianBlur stdDeviation="2"/>
<feComposite in2="hardAlpha" operator="out"/>
<feColorMatrix type="matrix" values="0 0 0 0 0 0 0 0 0 0 0 0 0 0 0 0 0 0 0.25 0"/>
<feBlend mode="normal" in2="BackgroundImageFix" result="effect1_dropShadow_626_134"/>
<feBlend mode="normal" in="SourceGraphic" in2="effect1_dropShadow_626_134" result="shape"/>
</filter>
</defs>
</svg>
