<svg width="170" height="61" viewBox="0 0 170 61" fill="none" xmlns="http://www.w3.org/2000/svg">
<rect y="1" width="170" height="60" rx="30" fill="black"/>
<path d="M42.5 15.9C41.5 17.6667 40.3833 19.75 39.15 22.15C37.9167 24.5167 36.6833 26.9667 35.45 29.5C34.25 32 33.1 34.45 32 36.85C30.9333 39.25 30.05 41.35 29.35 43.15H42.85V47H24.55V44.25C25.05 42.9167 25.6333 41.45 26.3 39.85C26.9667 38.25 27.6833 36.6 28.45 34.9C29.2167 33.1667 30 31.4333 30.8 29.7C31.6333 27.9667 32.45 26.2833 33.25 24.65C34.0833 23.0167 34.8667 21.4833 35.6 20.05C36.3667 18.5833 37.0667 17.3 37.7 16.2H25.2V12.35H42.5V15.9ZM48.482 47V8.95L52.782 8.2V20.9C53.4154 20.7 54.0987 20.5333 54.832 20.4C55.5987 20.2667 56.3654 20.2 57.132 20.2C58.232 20.2 59.2654 20.3833 60.232 20.75C61.1987 21.0833 62.032 21.6667 62.732 22.5C63.4654 23.3333 64.032 24.4667 64.432 25.9C64.8654 27.3 65.082 29.05 65.082 31.15V47H60.782V31.5C60.782 28.9 60.4487 27 59.782 25.8C59.1154 24.6 57.8654 24 56.032 24C55.0654 24 53.982 24.1667 52.782 24.5V47H48.482ZM88.8531 46.25C88.4198 46.4167 87.8865 46.5833 87.2531 46.75C86.6531 46.8833 86.0031 47 85.3031 47.1C84.6365 47.2333 83.9531 47.3333 83.2531 47.4C82.5865 47.5 81.9698 47.55 81.4031 47.55C80.0365 47.55 78.7865 47.3833 77.6531 47.05C76.5198 46.75 75.5531 46.2 74.7531 45.4C73.9531 44.6 73.3365 43.5167 72.9031 42.15C72.4698 40.75 72.2531 39 72.2531 36.9V20.75H76.5531V36.75C76.5531 39.3167 76.9365 41.1333 77.7031 42.2C78.5031 43.2333 79.7031 43.75 81.3031 43.75C81.8365 43.75 82.3698 43.7333 82.9031 43.7C83.4365 43.6333 83.9865 43.5167 84.5531 43.35V20.75H88.8531V46.25ZM112.877 20.75C111.477 23.15 110.127 25.35 108.827 27.35C107.56 29.3167 106.293 31.1667 105.027 32.9C105.827 33.8333 106.643 34.8833 107.477 36.05C108.31 37.2167 109.11 38.4333 109.877 39.7C110.643 40.9333 111.36 42.1833 112.027 43.45C112.693 44.6833 113.26 45.8667 113.727 47H109.027C108.527 45.9 107.943 44.75 107.277 43.55C106.61 42.35 105.91 41.1833 105.177 40.05C104.443 38.8833 103.71 37.7833 102.977 36.75C102.243 35.7167 101.56 34.85 100.927 34.15V47H96.6266V8.95L100.927 8.2V32.05C101.527 31.25 102.16 30.35 102.827 29.35C103.527 28.35 104.21 27.35 104.877 26.35C105.543 25.3167 106.177 24.3167 106.777 23.35C107.377 22.3833 107.877 21.5167 108.277 20.75H112.877Z" fill="white"/>
<line x1="85" y1="31.5" x2="135" y2="31.5" stroke="white" stroke-width="3"/>
<path d="M25 47H127" stroke="white" stroke-width="2.5"/>
<line x1="127.5" y1="15" x2="127.5" y2="48" stroke="white" stroke-width="3"/>
<line x1="127.5" y1="15" x2="127.5" y2="48" stroke="white" stroke-width="3"/>
<line x1="133.538" y1="32.6387" x2="136.909" y2="18.0223" stroke="white" stroke-width="3"/>
<line x1="140.915" y1="13.3692" x2="138.454" y2="23.0616" stroke="white" stroke-width="3"/>
<line x1="143.38" y1="44.8453" x2="135.989" y2="38.1085" stroke="white" stroke-width="3"/>
<line x1="127.036" y1="32.9157" x2="137.88" y2="43.2804" stroke="white" stroke-width="3"/>
<line x1="111.003" y1="45.5003" x2="126.324" y2="31.879" stroke="white" stroke-width="3"/>
</svg>
