<svg width="60" height="60" viewBox="0 0 60 60" fill="none" xmlns="http://www.w3.org/2000/svg">
<g clip-path="url(#clip0_626_129)">
<path d="M0 28.8C0 15.2235 0 8.43532 4.21766 4.21766C8.43532 0 15.2235 0 28.8 0H31.2C44.7765 0 51.5646 0 55.7824 4.21766C60 8.43532 60 15.2235 60 28.8V31.2C60 44.7765 60 51.5646 55.7824 55.7824C51.5646 60 44.7765 60 31.2 60H28.8C15.2235 60 8.43532 60 4.21766 55.7824C0 51.5646 0 44.7765 0 31.2V28.8Z" fill="black"/>
<path d="M60 30C60 37.9565 65.6261 54.3739 60 60C54.3739 65.6261 37.9565 60 30 60C22.0435 60 5.62609 65.6261 2.38419e-06 60C-5.62609 54.3739 -4.05312e-06 41.4702 -4.05312e-06 33.5137C-4.05312e-06 25.5572 -5.62609 5.62609 -3.33786e-06 -1.90735e-06C5.62609 -5.62609 22.0435 -5.24521e-06 30 -5.24521e-06C37.9565 -5.24521e-06 54.3739 -5.62609 60 -2.6226e-06C65.6261 5.62609 60 22.0435 60 30ZM31.0762 22.1475C28.1587 23.3625 22.3237 25.875 13.5787 29.685C12.1612 30.2475 11.415 30.8025 11.3475 31.3425C11.235 32.2537 12.3787 32.6137 13.935 33.105L14.5912 33.3112C16.1213 33.81 18.1837 34.3912 19.2525 34.4137C20.2275 34.4362 21.3112 34.0387 22.5075 33.2137C30.6787 27.6975 34.8975 24.9112 35.16 24.8512C35.3475 24.8062 35.61 24.7537 35.7825 24.9112C35.9587 25.065 35.94 25.3612 35.9212 25.44C35.8088 25.9237 31.32 30.0937 28.9987 32.2537C28.275 32.9287 27.7612 33.405 27.6562 33.5137C27.425 33.75 27.19 33.9826 26.9512 34.2112C25.5262 35.5837 24.4613 36.6112 27.0075 38.2912C28.2337 39.1012 29.2162 39.765 30.195 40.4325C31.26 41.16 32.325 41.8837 33.705 42.7912C34.0537 43.0162 34.3913 43.26 34.7175 43.4925C35.9587 44.3775 37.08 45.1725 38.4562 45.045C39.2587 44.97 40.0875 44.22 40.5075 41.97C41.5012 36.6562 43.455 25.1475 43.905 20.4037C43.9325 20.0094 43.9161 19.6132 43.8562 19.2225C43.8209 18.9072 43.6683 18.6167 43.4287 18.4087C43.0875 18.1732 42.6808 18.0512 42.2662 18.06C41.1412 18.0787 39.405 18.6825 31.0762 22.1475Z" fill="white"/>
</g>
<defs>
<clipPath id="clip0_626_129">
<rect width="60" height="60" rx="15" fill="white"/>
</clipPath>
</defs>
</svg>
