<svg width="41" height="40" viewBox="0 0 41 40" fill="none" xmlns="http://www.w3.org/2000/svg">
<g clip-path="url(#clip0_34_36)">
<path d="M0.54071 19.2C0.54071 10.149 0.54071 5.62355 3.35249 2.81177C6.16426 0 10.6897 0 19.7407 0H21.3407C30.3917 0 34.9171 0 37.729 2.81177C40.5407 5.62355 40.5407 10.149 40.5407 19.2V20.8C40.5407 29.851 40.5407 34.3764 37.729 37.1882C34.9171 40 30.3917 40 21.3407 40H19.7407C10.6897 40 6.16426 40 3.35249 37.1882C0.54071 34.3764 0.54071 29.851 0.54071 20.8V19.2Z" fill="white"/>
<path d="M21.7554 28.8C12.4622 28.8 7.16157 22.4937 6.9407 12H11.5958C11.7487 19.7021 15.1805 22.9646 17.8988 23.6372V12H22.2822V18.6426C24.9665 18.3568 27.7864 15.3297 28.7378 12H33.1212C32.3906 16.1033 29.3325 19.1303 27.1579 20.3748C29.3325 21.3838 32.8155 24.024 34.1407 28.8H29.3156C28.2792 25.6048 25.6971 23.1327 22.2822 22.7964V28.8H21.7554Z" fill="black"/>
</g>
<defs>
<clipPath id="clip0_34_36">
<rect width="40" height="40" fill="white" transform="translate(0.54071)"/>
</clipPath>
</defs>
</svg>
