<svg width="41" height="40" viewBox="0 0 41 40" fill="none" xmlns="http://www.w3.org/2000/svg">
<path d="M0.54071 19.2C0.54071 10.149 0.54071 5.62355 3.35249 2.81177C6.16426 0 10.6897 0 19.7407 0H21.3407C30.3917 0 34.9171 0 37.729 2.81177C40.5407 5.62355 40.5407 10.149 40.5407 19.2V20.8C40.5407 29.851 40.5407 34.3764 37.729 37.1882C34.9171 40 30.3917 40 21.3407 40H19.7407C10.6897 40 6.16426 40 3.35249 37.1882C0.54071 34.3764 0.54071 29.851 0.54071 20.8V19.2Z" fill="white"/>
<path d="M28.5407 33H24.0696V10.5194H22.0778C18.4269 10.5194 16.5145 12.3752 16.5145 15.1454C16.5145 18.2883 17.8335 19.7445 20.5623 21.6003L22.8111 23.141L16.3482 32.9962H11.5407L17.3573 24.1976C14.0125 21.7693 12.1303 19.3987 12.1303 15.399C12.1303 10.4003 15.5583 7 22.0476 7H28.5105V32.9923H28.5407V33Z" fill="black"/>
</svg>
